<svg width="61" height="61" viewBox="0 0 61 61" fill="none" xmlns="http://www.w3.org/2000/svg">
<path d="M30.5 0.96875C24.6593 0.96875 18.9497 2.70073 14.0933 5.94566C9.23694 9.1906 5.45185 13.8028 3.2167 19.1989C0.981546 24.595 0.396728 30.5328 1.5362 36.2613C2.67567 41.9898 5.48825 47.2517 9.61827 51.3817C13.7483 55.5118 19.0103 58.3243 24.7388 59.4638C30.4673 60.6033 36.405 60.0185 41.8011 57.7833C47.1973 55.5482 51.8094 51.7631 55.0543 46.9067C58.2993 42.0503 60.0313 36.3407 60.0313 30.5C60.0313 22.6678 56.9199 15.1564 51.3818 9.61825C45.8436 4.08007 38.3322 0.96875 30.5 0.96875ZM50.8864 31.1989L41.0427 41.0427C40.8544 41.2039 40.6121 41.2882 40.3644 41.2786C40.1166 41.2691 39.8816 41.1664 39.7063 40.991C39.531 40.8157 39.4283 40.5807 39.4187 40.333C39.4092 40.0852 39.4934 39.843 39.6547 39.6547L47.8152 31.4844H10.8125C10.5514 31.4844 10.3011 31.3807 10.1165 31.1961C9.93185 31.0115 9.82814 30.7611 9.82814 30.5C9.82814 30.2389 9.93185 29.9885 10.1165 29.8039C10.3011 29.6193 10.5514 29.5156 10.8125 29.5156H47.8152L39.6547 21.3552C39.4934 21.1668 39.4092 20.9246 39.4187 20.6769C39.4283 20.4291 39.531 20.1941 39.7063 20.0188C39.8816 19.8435 40.1166 19.7408 40.3644 19.7312C40.6121 19.7217 40.8544 19.8059 41.0427 19.9672L50.8864 29.8109C51.0698 29.9954 51.1727 30.2449 51.1727 30.5049C51.1727 30.765 51.0698 31.0145 50.8864 31.1989Z" fill="black"/>
</svg>
